<svg data-v-0dd9719b="" version="1.0" xmlns="http://www.w3.org/2000/svg" xmlns:xlink="http://www.w3.org/1999/xlink" width="100%" height="100%" viewBox="0 0 340.000000 250.000000" preserveAspectRatio="xMidYMid meet" color-interpolation-filters="sRGB" style="margin: auto;"> <rect data-v-0dd9719b="" x="0" y="0" width="100%" height="100%" fill="#0000" fill-opacity="1" class="background"></rect> <rect data-v-0dd9719b="" x="0" y="0" width="100%" height="100%" fill="url(#watermark)" fill-opacity="1" class="watermarklayer"></rect> <g data-v-0dd9719b="" fill="#2ebef3" class="iconlinesvg-g iconlinesvg" transform="translate(71.1503677368164,98.0378360748291)"><g class="tp-name" transform="translate(0,0)" fill="url(#22b4339a-6c23-47f1-a508-90a62ad197a3)"><g transform="translate(0, 0)"><g mask="url(#d4788eef-89ef-433a-88ab-8bcbc6df6f64)"><g class="imagesvg"><g><rect fill="url(#22b4339a-6c23-47f1-a508-90a62ad197a3)" fill-opacity="0" stroke-width="2" x="0" y="0" width="68.34028331241656" height="39.76832938352744" class="image-rect"></rect> <svg x="0" y="0" width="68.34028331241656" height="39.76832938352744" filtersec="colorsb9622778783" class="image-svg-svg primary" style="overflow: visible;"><svg xmlns="http://www.w3.org/2000/svg" viewBox="-0.0008232288528233767 -0.0005438327789306641 166.7100067138672 97.01139068603516"><title>资源 19</title><path d="M104.65 75.14c-.47 9.73-6.41 17.94-15.44 20.76s-19-.13-24-8.33Q48.47 59.55 32.54 31C26.93 20.92 31 8.48 40.88 2.94 51.15-2.84 63.6.06 69.64 10.24 80.49 28.53 91.06 47 101.53 65.49c1.63 2.89 2.11 6.42 3.12 9.65zM115.18 0a20.32 20.32 0 0 1 17.13 10.4c10.63 18.21 21.26 36.43 31.62 54.8a21.12 21.12 0 0 1-7.69 28.71c-10 5.93-22.81 3.21-28.87-6.92-11-18.38-21.83-36.9-32.13-55.69C87.48 17.14 98 .1 115.18 0z" fill="url(#22b4339a-6c23-47f1-a508-90a62ad197a3)"></path><path d="M0 75.33C-.06 63 9.13 53.62 21.25 53.68a21.34 21.34 0 0 1 .06 42.68A20.85 20.85 0 0 1 0 75.33z" fill="url(#22b4339a-6c23-47f1-a508-90a62ad197a3)"></path></svg></svg> <!----></g></g><rect v-gra="id" width="80.34028625488281" height="51.76832962036133" transform="translate(-6, -6)" style="pointer-events:none;" fill="url(#D3d-6sSC0lyvQ34wPaEvf)"></rect></g></g><g transform="translate(72, 3.002204780850576)"><g data-gra="path-name" fill="url(#22b4339a-6c23-47f1-a508-90a62ad197a3)" transform="scale(1)"><path d="M11.27 0.22L11.27 0.22L7.84 0.22L5.39 0.22Q4.72 0.22 4.28-0.24Q3.83-0.71 3.83-1.34L3.83-1.34L3.83-31.36Q3.83-31.98 4.28-32.45Q4.72-32.92 5.39-32.92L5.39-32.92L7.84-32.92L11.27-32.92Q12.61-32.92 13.90-32.45Q15.19-31.98 16.21-31.00Q17.24-30.02 17.88-28.51Q18.53-26.99 18.53-24.94L18.53-24.94L18.53-7.80Q18.53-5.70 17.88-4.21Q17.24-2.72 16.21-1.71Q15.19-0.71 13.90-0.24Q12.61 0.22 11.27 0.22ZM6.95-29.80L6.95-2.94L7.84-2.94L11.27-2.94Q12.92-2.94 14.03-3.96L14.03-3.96Q15.41-5.26 15.41-7.80L15.41-7.80L15.41-24.94Q15.41-27.39 14.03-28.78L14.03-28.78Q12.87-29.80 11.27-29.80L11.27-29.80L7.84-29.80L6.95-29.80Z" transform="translate(-3.8307349665924275, 33.14031180400891)"></path></g></g><g transform="translate(90, 3.002204780850576)"><g data-gra="path-name" fill="url(#22b4339a-6c23-47f1-a508-90a62ad197a3)" transform="scale(1)"><path d="" transform="translate(0, 33.14031180400891)"></path></g></g><g transform="translate(102, 3.002204780850576)"><g data-gra="path-name" fill="url(#22b4339a-6c23-47f1-a508-90a62ad197a3)" transform="scale(1)"><path d="M10.91 0.62L10.91 0.62Q7.53 0.62 5.66-1.47L5.66-1.47Q4.14-3.12 3.74-5.75L3.74-5.75Q3.61-6.64 3.63-7.26Q3.65-7.88 3.65-7.97L3.65-7.97Q3.74-8.51 3.92-8.95L3.92-8.95Q4.10-9.31 4.43-9.60Q4.77-9.89 5.39-9.80L5.39-9.80Q6.01-9.71 6.30-9.38Q6.59-9.04 6.68-8.69L6.68-8.69Q6.82-8.24 6.77-7.71L6.77-7.71Q6.73-6.95 6.86-6.19L6.86-6.19Q6.95-5.57 7.19-4.86Q7.44-4.14 7.97-3.61L7.97-3.61Q8.95-2.49 10.91-2.49L10.91-2.49Q12.87-2.49 13.99-3.61L13.99-3.61Q14.48-4.14 14.74-4.79Q15.01-5.43 15.12-6.01Q15.23-6.59 15.23-7.02Q15.23-7.44 15.23-7.48L15.23-7.48L15.23-7.57L15.23-31.36Q15.23-31.98 15.70-32.45Q16.17-32.92 16.79-32.92L16.79-32.92Q17.46-32.92 17.93-32.45Q18.40-31.98 18.40-31.36L18.40-31.36L18.35-7.62Q18.40-7.44 18.37-6.86Q18.35-6.28 18.22-5.52L18.22-5.52Q18.00-4.32 17.53-3.27Q17.06-2.23 16.30-1.47L16.30-1.47Q14.30 0.62 10.91 0.62Z" transform="translate(-3.6271078587336936, 33.14031180400891)"></path></g></g><g transform="translate(120, 3.002204780850576)"><g data-gra="path-name" fill="url(#22b4339a-6c23-47f1-a508-90a62ad197a3)" transform="scale(1)"><path d="M10.82-31.94L17.06-1.16Q17.19-0.53 16.84-0.02Q16.48 0.49 15.90 0.62L15.90 0.62L15.63 0.62Q15.14 0.62 14.72 0.29Q14.30-0.04 14.21-0.53L14.21-0.53L13.01-6.33L5.79-6.33L4.63-0.53Q4.54-0.04 4.12 0.29Q3.70 0.62 3.16 0.62L3.16 0.62L2.90 0.62Q2.32 0.49 1.98-0.02Q1.65-0.53 1.78-1.16L1.78-1.16L7.97-31.94Q8.02-32.12 8.06-32.16L8.06-32.16L8.06-32.20L8.06-32.25Q8.15-32.47 8.29-32.56L8.29-32.56L8.29-32.65L8.33-32.65L8.33-32.69L8.37-32.69L8.37-32.74L8.42-32.74L8.42-32.78L8.46-32.78Q8.55-32.87 8.64-32.92Q8.73-32.96 8.86-33.01L8.86-33.01L8.86-33.05L8.91-33.05Q9.00-33.10 9.11-33.10Q9.22-33.10 9.31-33.14L9.31-33.14L9.35-33.14L9.44-33.14L9.49-33.14Q9.58-33.10 9.69-33.10Q9.80-33.10 9.89-33.05L9.89-33.05L9.93-33.05L9.93-33.01Q10.11-32.96 10.20-32.92Q10.29-32.87 10.38-32.78L10.38-32.78L10.42-32.78L10.42-32.74L10.47-32.74L10.47-32.69L10.51-32.69L10.51-32.65Q10.51-32.65 10.56-32.56L10.56-32.56Q10.60-32.47 10.67-32.41Q10.73-32.34 10.78-32.25L10.78-32.25L10.78-32.20L10.78-32.16Q10.82-32.12 10.82-31.94L10.82-31.94ZM6.37-9.22L12.43-9.22L9.35-24.28L6.37-9.22Z" transform="translate(-1.7435664323496658, 33.14031180400891)"></path></g></g><g transform="translate(139, 3.002204780850576)"><g data-gra="path-name" fill="url(#22b4339a-6c23-47f1-a508-90a62ad197a3)" transform="scale(1)"><path d="M20.49-0.31L20.45-0.31L20.45-0.27Q20.27-0.09 20.13-0.04L20.13-0.04Q20.13 0 20.09 0L20.09 0L20.04 0.04L20.00 0.04Q20.00 0.04 19.96 0.09L19.96 0.09L19.91 0.09Q19.78 0.13 19.60 0.22L19.60 0.22L19.55 0.22L19.51 0.22L19.47 0.22L19.42 0.22L19.33 0.22L19.24 0.22L19.15 0.22L19.11 0.22L19.06 0.22L19.02 0.22Q18.93 0.22 18.89 0.18L18.89 0.18L18.80 0.18Q18.62 0.13 18.44 0L18.44 0Q18.40-0.04 18.35-0.07Q18.31-0.09 18.26-0.13L18.26-0.13Q18.26-0.13 18.17-0.22L18.17-0.22L18.13-0.22Q18.13-0.22 18.08-0.27L18.08-0.27L18.08-0.31Q18.04-0.31 18.04-0.33Q18.04-0.36 18.00-0.36L18.00-0.36L18.00-0.40Q18.00-0.45 17.97-0.45Q17.95-0.45 17.95-0.49L17.95-0.49L17.91-0.49Q17.91-0.58 17.86-0.58L17.86-0.58L17.86-0.62Q17.86-0.62 17.82-0.71L17.82-0.71Q17.82-0.76 17.80-0.78Q17.77-0.80 17.77-0.85L17.77-0.85L13.99-12.29L10.20-0.85Q10.16-0.80 10.16-0.71L10.16-0.71L10.11-0.71Q10.11-0.62 10.07-0.62L10.07-0.62L10.07-0.58Q10.07-0.58 10.02-0.49L10.02-0.49Q9.98-0.45 9.98-0.40L9.98-0.40Q9.93-0.40 9.93-0.36L9.93-0.36L9.89-0.31L9.84-0.27L9.80-0.22L9.71-0.13L9.67-0.13Q9.58-0.04 9.49 0L9.49 0Q9.35 0.13 9.18 0.18L9.18 0.18L9.09 0.18L9.04 0.18Q9.00 0.22 8.95 0.22L8.95 0.22L8.91 0.22L8.86 0.22L8.78 0.22L8.73 0.22L8.69 0.22L8.60 0.22L8.55 0.22L8.51 0.22L8.46 0.22L8.42 0.22L8.37 0.22Q8.24 0.18 8.06 0.09L8.06 0.09L8.02 0.09L7.97 0.09L7.97 0.04L7.93 0.04Q7.93 0.04 7.88 0L7.88 0Q7.84 0 7.84-0.04L7.84-0.04L7.80-0.04Q7.71-0.09 7.57-0.22L7.57-0.22L7.57-0.27L7.53-0.27Q7.53-0.31 7.48-0.31L7.48-0.31Q7.48-0.36 7.44-0.36L7.44-0.36L7.44-0.40Q7.44-0.40 7.39-0.45L7.39-0.45L7.35-0.49L7.22-0.76L7.22-0.85Q7.17-0.85 7.17-0.89L7.17-0.89L7.17-0.94L7.17-0.98L7.17-1.02Q7.13-1.07 7.13-1.16L7.13-1.16L3.43-31.14Q3.34-31.76 3.74-32.27Q4.14-32.78 4.81-32.87L4.81-32.87Q5.43-32.96 5.95-32.56Q6.46-32.16 6.55-31.54L6.55-31.54L9.40-8.46L12.47-17.82L12.52-17.86L12.52-17.91Q12.52-17.95 12.56-17.95L12.56-17.95L12.56-18.00L12.56-18.04Q12.65-18.13 12.65-18.13L12.65-18.13L12.65-18.17Q12.65-18.17 12.69-18.22L12.69-18.22Q12.69-18.22 12.74-18.26L12.74-18.26Q12.74-18.31 12.78-18.31L12.78-18.31L12.78-18.35L12.83-18.35L12.83-18.40Q12.83-18.40 12.87-18.44L12.87-18.44Q12.92-18.44 12.92-18.49L12.92-18.49L12.96-18.49L12.96-18.53Q12.96-18.53 13.01-18.57L13.01-18.57Q13.10-18.66 13.21-18.69Q13.32-18.71 13.41-18.80L13.41-18.80L13.50-18.80L13.54-18.84L13.59-18.84L13.63-18.84L13.67-18.84L13.72-18.84L13.72-18.89L13.76-18.89L13.81-18.89L13.85-18.89L13.90-18.89L13.94-18.89L13.99-18.89L14.03-18.89L14.08-18.89L14.12-18.89L14.16-18.89L14.21-18.89Q14.21-18.89 14.25-18.84L14.25-18.84L14.30-18.84L14.39-18.84Q14.43-18.84 14.43-18.82Q14.43-18.80 14.48-18.80L14.48-18.80L14.57-18.80Q14.65-18.71 14.74-18.69Q14.83-18.66 14.92-18.57L14.92-18.57L14.97-18.53Q15.01-18.53 15.01-18.49L15.01-18.49L15.06-18.49L15.06-18.44L15.10-18.44L15.10-18.40Q15.14-18.40 15.14-18.35L15.14-18.35L15.19-18.35L15.19-18.31L15.23-18.26Q15.23-18.26 15.28-18.22L15.28-18.22Q15.28-18.17 15.32-18.17L15.32-18.17L15.32-18.13L15.32-18.08L15.37-18.08L15.37-18.04L15.37-18.00Q15.41-18.00 15.41-17.95L15.41-17.95Q15.41-17.95 15.46-17.91L15.46-17.91L15.46-17.86L15.46-17.82L18.57-8.46L21.43-31.54Q21.51-32.16 22.03-32.56Q22.54-32.96 23.16-32.87L23.16-32.87Q23.79-32.78 24.21-32.27Q24.63-31.76 24.54-31.14L24.54-31.14L20.85-1.16Q20.80-1.11 20.80-1.02L20.80-1.02L20.80-0.98L20.80-0.94L20.76-0.89L20.76-0.85Q20.76-0.80 20.71-0.76L20.71-0.76Q20.71-0.67 20.62-0.58L20.62-0.58Q20.62-0.53 20.58-0.49L20.58-0.49L20.58-0.45L20.53-0.45L20.53-0.40L20.49-0.36L20.49-0.31Z" transform="translate(-3.4136574718510273, 33.14031180400891)"></path></g></g><g transform="translate(164, 3.002204780850576)"><g data-gra="path-name" fill="url(#22b4339a-6c23-47f1-a508-90a62ad197a3)" transform="scale(1)"><path d="M16.84-2.94L16.84-2.94Q17.51-2.94 17.97-2.47Q18.44-2.00 18.44-1.34L18.44-1.34Q18.44-0.71 17.97-0.24Q17.51 0.22 16.84 0.22L16.84 0.22L5.03 0.22Q4.37 0.22 3.90-0.24Q3.43-0.71 3.43-1.34L3.43-1.34L3.43-31.36Q3.43-31.98 3.90-32.45Q4.37-32.92 5.03-32.92L5.03-32.92L16.84-32.92Q17.51-32.92 17.97-32.45Q18.44-31.98 18.44-31.36L18.44-31.36Q18.44-30.69 17.97-30.22Q17.51-29.76 16.84-29.76L16.84-29.76L6.59-29.76L6.59-16.08L14.30-16.08Q14.97-16.08 15.41-15.61Q15.86-15.14 15.86-14.48L15.86-14.48Q15.86-13.85 15.41-13.39Q14.97-12.92 14.30-12.92L14.30-12.92L6.59-12.92L6.59-2.94L16.84-2.94Z" transform="translate(-3.429844097995546, 33.14031180400891)"></path></g></g><g transform="translate(183, 3.002204780850576)"><g data-gra="path-name" fill="url(#22b4339a-6c23-47f1-a508-90a62ad197a3)" transform="scale(1)"><path d="M11.27 0.22L11.27 0.22L7.84 0.22L5.39 0.22Q4.72 0.22 4.28-0.24Q3.83-0.71 3.83-1.34L3.83-1.34L3.83-31.36Q3.83-31.98 4.28-32.45Q4.72-32.92 5.39-32.92L5.39-32.92L7.84-32.92L11.27-32.92Q12.61-32.92 13.90-32.45Q15.19-31.98 16.21-31.00Q17.24-30.02 17.88-28.51Q18.53-26.99 18.53-24.94L18.53-24.94L18.53-7.80Q18.53-5.70 17.88-4.21Q17.24-2.72 16.21-1.71Q15.19-0.71 13.90-0.24Q12.61 0.22 11.27 0.22ZM6.95-29.80L6.95-2.94L7.84-2.94L11.27-2.94Q12.92-2.94 14.03-3.96L14.03-3.96Q15.41-5.26 15.41-7.80L15.41-7.80L15.41-24.94Q15.41-27.39 14.03-28.78L14.03-28.78Q12.87-29.80 11.27-29.80L11.27-29.80L7.84-29.80L6.95-29.80Z" transform="translate(-3.8307349665924275, 33.14031180400891)"></path></g></g></g> <g data-gra="path-slogan" fill-rule="" class="tp-slogan" fill="url(#e85a5a76-901b-4e58-b8b8-297795d75ca3)" transform="translate(5.000007629394531,45.76832962036133)"><rect x="0" height="1" y="3.580000400543213" width="72.72963333129883"></rect> <rect height="1" y="3.580000400543213" width="72.72963333129883" x="114.96963119506836"></rect> <g transform="translate(75.72963333129883,0)"><g transform="scale(1)"><path d="M4.43-3.20L2.06-3.20L2.44-4.40C2.58-4.84 2.72-5.28 2.84-5.72C2.97-6.15 3.10-6.60 3.22-7.06L3.26-7.06C3.39-6.60 3.52-6.15 3.65-5.72C3.78-5.28 3.91-4.84 4.06-4.40ZM4.68-2.40L5.42 0L6.49 0L3.83-7.87L2.70-7.87L0.04 0L1.06 0L1.81-2.40ZM7.61-7.87L7.61 0L8.56 0L8.56-4.12C8.56-4.53 8.54-4.95 8.51-5.36C8.49-5.77 8.46-6.18 8.42-6.58L8.47-6.58L9.32-4.96L12.18 0L13.21 0L13.21-7.87L12.26-7.87L12.26-3.80C12.26-3.39 12.28-2.97 12.31-2.54C12.33-2.11 12.36-1.70 12.38-1.30L12.34-1.30L11.48-2.93L8.64-7.87ZM15.40-1.72L14.80-1.02C15.14-0.66 15.55-0.38 16.02-0.17C16.49 0.04 17.00 0.14 17.56 0.14C17.97 0.14 18.34 0.09 18.67-0.03C19.00-0.15 19.28-0.31 19.51-0.51C19.74-0.71 19.92-0.95 20.05-1.22C20.17-1.50 20.23-1.79 20.23-2.10C20.23-2.39 20.19-2.64 20.11-2.86C20.02-3.08 19.91-3.27 19.76-3.44C19.62-3.60 19.45-3.75 19.25-3.87C19.05-3.99 18.84-4.10 18.61-4.20L17.50-4.68C17.34-4.74 17.18-4.81 17.03-4.89C16.88-4.97 16.74-5.05 16.61-5.15C16.48-5.25 16.38-5.37 16.30-5.50C16.23-5.63 16.19-5.80 16.19-5.99C16.19-6.35 16.32-6.63 16.59-6.83C16.86-7.04 17.21-7.14 17.65-7.14C18.02-7.14 18.35-7.07 18.64-6.94C18.93-6.81 19.20-6.63 19.44-6.40L19.98-7.04C19.70-7.33 19.36-7.57 18.96-7.75C18.56-7.93 18.12-8.02 17.65-8.02C17.29-8.02 16.96-7.96 16.66-7.86C16.36-7.76 16.10-7.61 15.88-7.42C15.66-7.23 15.49-7.01 15.37-6.76C15.24-6.50 15.18-6.22 15.18-5.93C15.18-5.64 15.23-5.39 15.32-5.17C15.42-4.95 15.54-4.76 15.70-4.60C15.85-4.44 16.02-4.30 16.21-4.19C16.40-4.08 16.59-3.98 16.78-3.90L17.90-3.41C18.09-3.32 18.26-3.24 18.42-3.16C18.58-3.08 18.72-2.99 18.83-2.89C18.95-2.79 19.04-2.67 19.11-2.53C19.18-2.39 19.21-2.22 19.21-2.02C19.21-1.63 19.07-1.32 18.78-1.09C18.49-0.85 18.09-0.73 17.57-0.73C17.16-0.73 16.77-0.82 16.39-1.00C16.01-1.18 15.68-1.42 15.40-1.72ZM25.13-3.20L22.76-3.20L23.14-4.40C23.28-4.84 23.42-5.28 23.54-5.72C23.67-6.15 23.80-6.60 23.92-7.06L23.96-7.06C24.09-6.60 24.22-6.15 24.35-5.72C24.48-5.28 24.61-4.84 24.76-4.40ZM25.38-2.40L26.12 0L27.19 0L24.53-7.87L23.40-7.87L20.74 0L21.76 0L22.51-2.40ZM29.30-4.14L29.30-7.07L30.62-7.07C31.24-7.07 31.71-6.96 32.04-6.76C32.37-6.55 32.53-6.18 32.53-5.66C32.53-5.15 32.37-4.77 32.04-4.52C31.71-4.27 31.24-4.14 30.62-4.14ZM32.63 0L33.76 0L31.76-3.43C32.30-3.57 32.73-3.82 33.05-4.19C33.37-4.56 33.53-5.05 33.53-5.66C33.53-6.07 33.46-6.42 33.32-6.70C33.19-6.98 33.00-7.20 32.75-7.38C32.51-7.56 32.22-7.68 31.88-7.76C31.54-7.83 31.17-7.87 30.77-7.87L28.31-7.87L28.31 0L29.30 0L29.30-3.32L30.73-3.32ZM35.28-7.87L35.28 0L36.28 0L36.28-7.87Z" transform="translate(-0.036000000000000004, 8.016)"></path></g></g></g></g><defs v-gra="od"><linearGradient x1="0" y1="1" x2="0" y2="0" id="e85a5a76-901b-4e58-b8b8-297795d75ca3"><stop offset="0%" stop-color="#2ebef3"></stop><stop offset="100%" stop-color="#fffc9f"></stop></linearGradient><filter id="42443b3f1de60f6b6fd3b6a9844b4764" filterUnits="objectBoundingBox"><feColorMatrix type="matrix" values="0 0 0 0 0.99609375  0 0 0 0 0.99609375  0 0 0 0 0.99609375  0 0 0 1 0"></feColorMatrix></filter><linearGradient x1="0" y1="1" x2="0" y2="0" id="22b4339a-6c23-47f1-a508-90a62ad197a3"><stop offset="0%" stop-color="#2ebef3"></stop><stop offset="100%" stop-color="#fffc9f"></stop></linearGradient><filter id="42443b3f1de60f6b6fd3b6a9844b4764" filterUnits="objectBoundingBox"><feColorMatrix type="matrix" values="0 0 0 0 0.99609375  0 0 0 0 0.99609375  0 0 0 0 0.99609375  0 0 0 1 0"></feColorMatrix></filter></defs><defs v-gra="id"><filter id="a22577d7-7e32-494c-8af7-08643fcfbeab" filterUnits="userSpaceOnUse"><feColorMatrix type="matrix" values="0 0 0 0 0.99609375  0 0 0 0 0.99609375  0 0 0 0 0.99609375  0 0 0 1 0"></feColorMatrix></filter><linearGradient x1="0" y1="1" x2="0" y2="0" id="D3d-6sSC0lyvQ34wPaEvf"><stop offset="0%" stop-color="#2ebef3"></stop><stop offset="100%" stop-color="#fffc9f"></stop></linearGradient><filter id="42443b3f1de60f6b6fd3b6a9844b4764" filterUnits="objectBoundingBox"><feColorMatrix type="matrix" values="0 0 0 0 0.99609375  0 0 0 0 0.99609375  0 0 0 0 0.99609375  0 0 0 1 0"></feColorMatrix></filter></defs><mask v-gra="im" id="d4788eef-89ef-433a-88ab-8bcbc6df6f64"><g filter="url(#a22577d7-7e32-494c-8af7-08643fcfbeab)"><g class="imagesvg"><g><rect fill="url(#22b4339a-6c23-47f1-a508-90a62ad197a3)" fill-opacity="0" stroke-width="2" x="0" y="0" width="68.34028331241656" height="39.76832938352744" class="image-rect"></rect> <svg x="0" y="0" width="68.34028331241656" height="39.76832938352744" filtersec="colorsb9622778783" class="image-svg-svg primary" style="overflow: visible;"><svg xmlns="http://www.w3.org/2000/svg" viewBox="-0.0008232288528233767 -0.0005438327789306641 166.7100067138672 97.01139068603516"><title>资源 19</title><path d="M104.65 75.14c-.47 9.73-6.41 17.94-15.44 20.76s-19-.13-24-8.33Q48.47 59.55 32.54 31C26.93 20.92 31 8.48 40.88 2.94 51.15-2.84 63.6.06 69.64 10.24 80.49 28.53 91.06 47 101.53 65.49c1.63 2.89 2.11 6.42 3.12 9.65zM115.18 0a20.32 20.32 0 0 1 17.13 10.4c10.63 18.21 21.26 36.43 31.62 54.8a21.12 21.12 0 0 1-7.69 28.71c-10 5.93-22.81 3.21-28.87-6.92-11-18.38-21.83-36.9-32.13-55.69C87.48 17.14 98 .1 115.18 0z" fill="url(#22b4339a-6c23-47f1-a508-90a62ad197a3)"></path><path d="M0 75.33C-.06 63 9.13 53.62 21.25 53.68a21.34 21.34 0 0 1 .06 42.68A20.85 20.85 0 0 1 0 75.33z" fill="url(#22b4339a-6c23-47f1-a508-90a62ad197a3)"></path></svg></svg> <!----></g></g></g></mask></svg>